<svg width="18" height="18" viewBox="0 0 18 18" fill="none" xmlns="http://www.w3.org/2000/svg">
<path d="M0 5.5V14.75C0 16.5449 1.45507 18 3.25 18H14.75C16.5449 18 18 16.5449 18 14.75V5.5H0ZM13.75 12C14.4404 12 15 12.5596 15 13.25C15 13.9404 14.4404 14.5 13.75 14.5C13.0596 14.5 12.5 13.9404 12.5 13.25C12.5 12.5596 13.0596 12 13.75 12ZM9 12C9.69036 12 10.25 12.5596 10.25 13.25C10.25 13.9404 9.69036 14.5 9 14.5C8.30964 14.5 7.75 13.9404 7.75 13.25C7.75 12.5596 8.30964 12 9 12ZM13.75 7.5C14.4404 7.5 15 8.05964 15 8.75C15 9.44036 14.4404 10 13.75 10C13.0596 10 12.5 9.44036 12.5 8.75C12.5 8.05964 13.0596 7.5 13.75 7.5ZM9 7.5C9.69036 7.5 10.25 8.05964 10.25 8.75C10.25 9.44036 9.69036 10 9 10C8.30964 10 7.75 9.44036 7.75 8.75C7.75 8.05964 8.30964 7.5 9 7.5ZM4.25 7.5C4.94036 7.5 5.5 8.05964 5.5 8.75C5.5 9.44036 4.94036 10 4.25 10C3.55964 10 3 9.44036 3 8.75C3 8.05964 3.55964 7.5 4.25 7.5ZM3.25 0C1.45507 0 0 1.45507 0 3.25V4H18V3.25C18 1.45507 16.5449 0 14.75 0H3.25Z" fill="#00833E"/>
</svg>
