<svg width="32" height="24" viewBox="0 0 32 24" fill="none" xmlns="http://www.w3.org/2000/svg">
<g clip-path="url(#clip0)">
<path d="M-8.03198 0H40.096V24.064H-8.03198V0Z" fill="#012169"/>
<path d="M-8.03198 0V2.6884L34.7145 24.064H40.096V21.3756L-2.65048 0H-8.03198ZM40.096 0V2.6884L-2.65048 24.064H-8.03198V21.3756L34.7145 0H40.096Z" fill="white"/>
<path d="M12.0229 0V24.064H20.0411V0H12.0229ZM-8.03198 8.0229V16.0411H40.096V8.0229H-8.03198Z" fill="white"/>
<path d="M-8.03198 9.6256V14.4384H40.096V9.6256H-8.03198ZM13.6256 0V24.064H18.4384V0H13.6256ZM-8.03198 24.064L8.00911 16.0411H11.5999L-4.44588 24.064H-8.03198ZM-8.03198 0L8.00911 8.0229H4.42302L-8.03198 1.7954V0ZM20.4688 8.0229L36.5099 0H40.096L24.0549 8.0229H20.4688ZM40.096 24.064L24.0549 16.0411H27.641L40.096 22.2686V24.064Z" fill="#C8102E"/>
</g>
<defs>
<clipPath id="clip0">
<rect width="32" height="24" fill="white"/>
</clipPath>
</defs>
</svg>
