<svg width="13" height="16" viewBox="0 0 13 16" fill="none" xmlns="http://www.w3.org/2000/svg">
<path d="M2.49801 16C2.1003 15.9996 1.71897 15.8415 1.43774 15.5603C1.15651 15.279 0.998365 14.8977 0.998012 14.5V12.5347C0.995007 12.5119 0.995007 12.4888 0.998012 12.466V1.5C0.998365 1.10228 1.15651 0.720958 1.43774 0.43973C1.71897 0.158502 2.1003 0.000353055 2.49801 0L11.498 0C11.8957 0.000353055 12.2771 0.158502 12.5583 0.43973C12.8395 0.720958 12.9977 1.10228 12.998 1.5V14.5C12.9977 14.8977 12.8395 15.279 12.5583 15.5603C12.2771 15.8415 11.8957 15.9996 11.498 16H2.49801ZM1.99801 14.5C1.99801 14.776 2.22201 15 2.49801 15H11.498C11.6306 15 11.7578 14.9473 11.8516 14.8536C11.9453 14.7598 11.998 14.6326 11.998 14.5V13H1.99801V14.5ZM11.998 12V1.5C11.998 1.36739 11.9453 1.24021 11.8516 1.14645C11.7578 1.05268 11.6306 1 11.498 1H2.49801C2.3654 1 2.23823 1.05268 2.14446 1.14645C2.05069 1.24021 1.99801 1.36739 1.99801 1.5V12H11.998Z" fill="white"/>
</svg>
