<svg width="16" height="14" viewBox="0 0 16 14" fill="none" xmlns="http://www.w3.org/2000/svg">
<path d="M3.998 14C3.86539 14 3.73821 13.9473 3.64445 13.8536C3.55068 13.7598 3.498 13.6326 3.498 13.5C3.498 13.3674 3.55068 13.2402 3.64445 13.1464C3.73821 13.0527 3.86539 13 3.998 13H5.07467L5.408 11H1.498C1.10028 10.9996 0.718958 10.8415 0.43773 10.5603C0.156502 10.279 -0.0016468 9.89772 -0.00199986 9.5V1.5C-0.0016468 1.10228 0.156502 0.720958 0.43773 0.43973C0.718958 0.158502 1.10028 0.000353055 1.498 0H14.498C14.8957 0.000353055 15.277 0.158502 15.5583 0.43973C15.8395 0.720958 15.9976 1.10228 15.998 1.5V9.5C15.9976 9.89772 15.8395 10.279 15.5583 10.5603C15.277 10.8415 14.8957 10.9996 14.498 11H10.588L10.9213 13H11.998C12.1306 13 12.2578 13.0527 12.3516 13.1464C12.4453 13.2402 12.498 13.3674 12.498 13.5C12.498 13.6326 12.4453 13.7598 12.3516 13.8536C12.2578 13.9473 12.1306 14 11.998 14H3.998ZM9.908 13L9.57467 11H6.42133L6.088 13H9.908ZM1.498 1C1.36539 1 1.23821 1.05268 1.14445 1.14645C1.05068 1.24021 0.998 1.36739 0.998 1.5V9.5C0.998 9.776 1.222 10 1.498 10H14.498C14.6306 10 14.7578 9.94732 14.8516 9.85355C14.9453 9.75979 14.998 9.63261 14.998 9.5V1.5C14.998 1.36739 14.9453 1.24021 14.8516 1.14645C14.7578 1.05268 14.6306 1 14.498 1H1.498Z" fill="white"/>
</svg>
