<svg width="10" height="16" viewBox="0 0 10 16" fill="none" xmlns="http://www.w3.org/2000/svg">
<path d="M2.50067 16C1.83785 15.9993 1.20237 15.7357 0.733684 15.267C0.264996 14.7983 0.00137727 14.1628 0.000671387 13.5V2.5C0.00137727 1.83718 0.264996 1.2017 0.733684 0.733013C1.20237 0.264325 1.83785 0.000705884 2.50067 0L7.50067 0C8.1635 0.000705884 8.79897 0.264325 9.26766 0.733013C9.73635 1.2017 9.99997 1.83718 10.0007 2.5V13.5C9.99997 14.1628 9.73635 14.7983 9.26766 15.267C8.79897 15.7357 8.1635 15.9993 7.50067 16H2.50067ZM1.00067 13.5C1.00102 13.8977 1.15917 14.279 1.4404 14.5603C1.72163 14.8415 2.10296 14.9996 2.50067 15H7.50067C7.89839 14.9996 8.27971 14.8415 8.56094 14.5603C8.84217 14.279 9.00032 13.8977 9.00067 13.5V13H1.00067V13.5ZM9.00067 12V2.5C9.00032 2.10228 8.84217 1.72096 8.56094 1.43973C8.27971 1.1585 7.89839 1.00035 7.50067 1H2.50067C2.10296 1.00035 1.72163 1.1585 1.4404 1.43973C1.15917 1.72096 1.00102 2.10228 1.00067 2.5V12H9.00067Z" fill="white"/>
</svg>
