<svg width="300" height="301" viewBox="0 0 300 301" fill="none" xmlns="http://www.w3.org/2000/svg">
<path fill-rule="evenodd" clip-rule="evenodd" d="M149.628 36.0831C148.383 37.0133 133.289 49.2604 129.399 52.3609H169.857C166.122 49.2604 150.717 37.0133 149.628 36.0831ZM67.4665 119.642C78.6703 140.106 119.595 214.208 123.019 220.254V177.467L110.881 156.073L67.4665 119.642ZM98.4326 91.7375H199.578L210.315 100.109C212.338 98.5587 214.205 97.0084 216.228 95.4582C205.647 86.3116 195.221 77.1651 195.065 76.855H102.79C102.478 77.1651 92.9863 86.0016 83.183 94.9931C85.2059 96.6984 87.3844 98.4037 89.5629 100.109L98.4326 91.7375ZM63.1095 227.54V169.871L86.762 213.123L63.1095 227.54ZM218.718 162.895V185.993L176.237 220.099V241.803C179.66 239.012 235.368 194.055 236.302 193.435V148.787C235.057 149.717 227.743 155.608 218.718 162.895Z" fill="#5E9D45"/>
<path fill-rule="evenodd" clip-rule="evenodd" d="M125.197 224.595C125.197 225.06 124.886 225.525 124.419 225.68C123.952 225.835 123.33 225.68 123.174 225.06C123.174 225.06 62.9538 115.767 62.7982 115.456C62.6426 115.301 62.1758 114.991 61.7089 114.526L37.7452 94.3729V207.232C38.5233 207.852 57.9743 223.51 61.0865 225.99V165.22C61.0865 164.755 61.3977 164.29 62.0201 164.135C62.487 164.135 62.9538 164.29 63.265 164.755C63.265 164.755 124.575 276.994 124.73 277.149C125.042 277.459 145.115 293.427 148.227 296.062C148.227 291.566 148.538 188.474 148.538 187.389L125.353 167.855V224.595H125.197ZM253.263 98.8687L227.899 120.107C195.377 147.392 150.561 184.908 149.628 185.683L124.73 164.755C106.68 149.717 82.4049 129.254 64.1987 113.906L38.3677 92.3576C40.235 90.8073 55.9514 78.0952 57.1963 77.165C58.5968 78.2502 148.694 150.802 148.694 150.802C149.161 151.112 149.628 151.112 150.095 150.802C150.095 150.802 240.659 78.4052 242.059 77.165C243.304 78.0952 259.02 90.8073 260.732 92.2025C260.576 92.6676 257.776 94.993 253.263 98.8687ZM254.819 100.574C254.819 100.574 230.7 120.727 205.802 141.656L150.873 187.699V296.217C154.452 293.426 261.043 207.077 261.977 206.457V94.838C259.487 96.6983 254.819 100.574 254.819 100.574ZM238.636 194.055V146.462C238.636 145.997 238.324 145.532 237.858 145.377C237.546 145.066 237.08 145.221 236.768 145.532L174.525 195.605C174.214 195.76 174.058 196.07 174.058 196.535V244.283C174.058 244.593 174.214 245.058 174.681 245.213C174.992 245.368 175.459 245.368 175.926 245.058L238.169 194.985C238.48 194.675 238.636 194.365 238.636 194.055ZM101.233 74.8396C101.389 74.6846 101.7 74.5296 102.012 74.5296H195.221C195.532 74.5296 195.688 74.6846 195.999 74.8396C195.999 74.8396 207.047 84.4512 217.784 93.9078C228.832 85.0713 237.702 78.0952 240.503 75.7698C224.942 63.2127 206.114 48.0201 206.114 48.0201C206.114 48.0201 150.717 3.6826 149.628 2.75244C148.85 3.37255 91.1189 50.0354 59.2192 75.7698C62.1758 78.0952 70.5786 84.9163 81.3156 93.5978C91.2745 84.2962 101.233 74.8396 101.233 74.8396ZM125.508 52.5158L148.85 33.7577C149.316 33.4476 149.783 33.4476 150.25 33.7577L173.747 52.5158C174.058 52.8259 174.214 53.291 174.058 53.7561C173.903 54.2211 173.436 54.5312 172.969 54.5312H126.286C125.82 54.5312 125.353 54.2211 125.197 53.7561C125.042 53.291 125.197 52.8259 125.508 52.5158Z" fill="#8DC63F"/>
<path fill-rule="evenodd" clip-rule="evenodd" d="M126.287 54.5311H173.125C173.591 54.5311 174.058 54.2211 174.214 53.756C174.37 53.2909 174.214 52.8259 173.903 52.5158L150.406 33.7576C149.939 33.4476 149.317 33.4476 149.005 33.7576L125.664 52.5158C125.353 52.8259 125.197 53.2909 125.353 53.756C125.353 54.2211 125.82 54.5311 126.287 54.5311ZM149.628 36.083C150.873 37.0132 166.122 49.2602 169.857 52.3608H129.399C133.289 49.2602 148.383 37.0132 149.628 36.083ZM263.378 91.5824C263.689 91.7374 264 92.2025 264 92.5126V205.837C264 205.837 263.844 207.542 263.533 207.697L150.25 299.473C150.25 299.628 150.095 299.628 150.095 299.628C149.939 299.938 149.783 300.093 149.472 300.093C149.005 300.248 148.539 300.248 148.227 299.938L122.708 279.009C122.708 278.854 122.552 278.699 122.396 278.699C122.396 278.699 66.9997 177.002 62.9539 169.871V228.626C62.9539 229.091 62.6427 229.556 62.3314 229.556C62.0202 229.866 61.5534 229.711 61.0866 229.401L35.5668 208.782C35.2556 208.627 35.1 208.317 35.1 207.852V91.7374L148.539 0.426997C149.005 0.116945 149.783 0.116945 150.095 0.426997L263.378 91.5824ZM149.628 2.75239C150.873 3.68255 206.269 48.1751 206.269 48.1751C206.269 48.1751 225.098 63.3676 240.659 75.9248C237.702 78.2501 228.988 85.2263 217.94 94.0628C207.203 84.6062 196.155 74.9946 196.155 74.9946C195.843 74.8396 195.688 74.6845 195.377 74.6845H102.167C101.856 74.6845 101.545 74.8396 101.389 74.9946C101.389 74.9946 91.2746 84.2962 81.3157 93.5977C70.5787 84.9163 62.1758 78.0951 59.2193 75.7697C91.119 50.0354 148.694 3.3725 149.628 2.75239ZM216.073 95.4581C205.491 86.3115 195.065 77.165 194.91 76.8549H102.634C102.323 77.165 92.8307 86.0015 83.0274 94.993C109.792 116.542 148.694 147.857 149.628 148.632C150.561 147.857 189.308 116.852 216.073 95.4581ZM147.916 187.234L125.197 168.01V224.595C125.197 225.06 124.886 225.525 124.264 225.68C123.797 225.835 123.174 225.68 123.019 225.06C123.019 225.06 62.7983 115.766 62.6427 115.456C62.4871 115.301 62.0202 114.991 61.5534 114.526L37.5897 94.3729V207.232C38.3677 207.852 57.6632 223.51 60.931 225.99V165.22C60.931 164.755 61.2422 164.29 61.709 164.135C62.1758 164.135 62.7983 164.29 62.9539 164.755C62.9539 164.755 124.264 276.994 124.419 277.149C124.73 277.459 144.804 293.427 147.916 296.062V187.234ZM67.4665 119.487C78.6703 139.951 119.595 213.898 123.019 220.099V166.15L67.4665 119.487ZM149.628 185.528C150.561 184.753 195.377 147.237 227.899 119.952L253.263 98.7136C257.776 94.838 260.577 92.5126 260.888 92.2025C259.02 90.8073 243.46 78.0951 242.215 77.165C240.814 78.2501 150.25 150.647 150.25 150.647C149.783 151.112 149.317 151.112 148.85 150.647C148.85 150.647 58.7524 78.0951 57.352 77.0099C56.1071 77.9401 40.3907 90.6522 38.5234 92.2025L64.3544 113.751C82.5605 129.099 106.835 149.407 124.886 164.6L149.628 185.528ZM261.821 206.457V94.838C259.487 96.6983 254.819 100.574 254.819 100.574C254.819 100.574 230.544 120.727 205.647 141.656L150.717 187.699V296.217C154.296 293.427 261.043 207.077 261.821 206.457ZM237.858 145.376C237.547 145.066 237.08 145.221 236.613 145.532L174.525 195.605C174.214 195.76 174.058 196.07 174.058 196.535V244.283C174.058 244.593 174.214 245.058 174.681 245.213C174.992 245.368 175.459 245.368 175.926 245.058L238.169 194.985C238.48 194.675 238.636 194.52 238.636 194.055V146.462C238.636 145.997 238.325 145.532 237.858 145.376ZM236.302 193.59V148.787C232.878 151.578 177.015 196.225 176.237 196.845V241.803C179.816 239.012 235.524 194.21 236.302 193.59Z" fill="white"/>
</svg>
